<svg width="21" height="21" viewBox="0 0 21 21" fill="none" xmlns="http://www.w3.org/2000/svg">
<path d="M13.7529 11.1657L11.55 9.89415V5.25C11.55 4.97152 11.4394 4.70445 11.2425 4.50754C11.0456 4.31062 10.7785 4.2 10.5 4.2C10.2215 4.2 9.95445 4.31062 9.75754 4.50754C9.56063 4.70445 9.45 4.97152 9.45 5.25V10.5C9.45001 10.6843 9.49853 10.8654 9.59068 11.025C9.68284 11.1846 9.81539 11.3171 9.975 11.4093L12.7029 12.9843C12.8224 13.0543 12.9545 13.1 13.0917 13.1188C13.2289 13.1376 13.3684 13.129 13.5023 13.0936C13.6362 13.0582 13.7617 12.9967 13.8717 12.9126C13.9817 12.8285 14.074 12.7234 14.1433 12.6035C14.2125 12.4836 14.2573 12.3511 14.2752 12.2138C14.293 12.0765 14.2835 11.937 14.2473 11.8034C14.211 11.6697 14.1486 11.5446 14.0638 11.4352C13.9789 11.3257 13.8733 11.2341 13.7529 11.1657ZM10.5 0C8.4233 0 6.39323 0.615814 4.66652 1.76957C2.9398 2.92332 1.59399 4.5632 0.79927 6.48182C0.00454948 8.40045 -0.203386 10.5116 0.201759 12.5484C0.606904 14.5852 1.60693 16.4562 3.07538 17.9246C4.54383 19.3931 6.41476 20.3931 8.45156 20.7982C10.4884 21.2034 12.5996 20.9955 14.5182 20.2007C16.4368 19.406 18.0767 18.0602 19.2304 16.3335C20.3842 14.6068 21 12.5767 21 10.5C20.9972 7.71608 19.8901 5.04698 17.9216 3.07845C15.953 1.10992 13.2839 0.00277975 10.5 0ZM10.5 18.9C8.83864 18.9 7.21459 18.4073 5.83321 17.4843C4.45184 16.5613 3.37519 15.2494 2.73942 13.7145C2.10364 12.1796 1.93729 10.4907 2.26141 8.86124C2.58552 7.2318 3.38555 5.73506 4.56031 4.5603C5.73507 3.38554 7.2318 2.58552 8.86125 2.2614C10.4907 1.93729 12.1796 2.10364 13.7145 2.73941C15.2494 3.37519 16.5613 4.45184 17.4843 5.83321C18.4073 7.21458 18.9 8.83863 18.9 10.5C18.8972 12.727 18.0113 14.8619 16.4366 16.4366C14.8619 18.0113 12.727 18.8972 10.5 18.9Z" fill="#E3E3E3"/>
</svg>
