<svg width="30" height="30" viewBox="0 0 30 30" fill="none" xmlns="http://www.w3.org/2000/svg">
<path fill-rule="evenodd" clip-rule="evenodd" d="M5.45455 0C4.00791 0 2.62053 0.574674 1.5976 1.5976C0.574674 2.62053 0 4.00791 0 5.45455V24.5455C0 25.9921 0.574674 27.3795 1.5976 28.4024C2.62053 29.4253 4.00791 30 5.45455 30H24.5455C25.9921 30 27.3795 29.4253 28.4024 28.4024C29.4253 27.3795 30 25.9921 30 24.5455V5.45455C30 4.00791 29.4253 2.62053 28.4024 1.5976C27.3795 0.574674 25.9921 0 24.5455 0H5.45455ZM4.99909 4.77273C4.84982 4.8282 4.71556 4.91777 4.60701 5.0343C4.49847 5.15083 4.41863 5.29109 4.37387 5.44392C4.32911 5.59675 4.32065 5.75792 4.34918 5.9146C4.3777 6.07127 4.44242 6.21912 4.53818 6.34636L12.1936 16.5055L4.12773 25.1577L4.06773 25.2273H6.85909L13.4455 18.165L18.5073 24.885C18.6247 25.0405 18.7842 25.1593 18.9668 25.2273H24.9968C25.1459 25.1715 25.2798 25.0817 25.3881 24.9651C25.4963 24.8484 25.5759 24.7081 25.6204 24.5553C25.6649 24.4025 25.6731 24.2414 25.6444 24.0849C25.6157 23.9284 25.5508 23.7807 25.455 23.6536L17.7995 13.4945L25.9323 4.77273H23.1368L16.5505 11.8364L11.4859 5.11636C11.3687 4.96031 11.2092 4.84107 11.0264 4.77273H4.99909ZM19.8355 23.2473L7.40591 6.75273H10.1591L22.5873 23.2459L19.8355 23.2473Z" fill="white"/>
</svg>
