<svg width="30" height="30" viewBox="0 0 30 30" fill="none" xmlns="http://www.w3.org/2000/svg">
<path d="M16.542 0.000488281C18.2294 0.00498817 19.0859 0.013988 19.8254 0.0349874L20.1163 0.0454871C20.4523 0.0574869 20.7838 0.0724865 21.1843 0.090486C22.7802 0.165484 23.8691 0.417478 24.8246 0.787969C25.8145 1.16896 26.6485 1.68495 27.4825 2.51743C28.2455 3.26701 28.8357 4.1741 29.2119 5.17536C29.5824 6.13084 29.8343 7.21981 29.9093 8.81727C29.9273 9.21626 29.9423 9.54776 29.9543 9.88525L29.9633 10.1762C29.9858 10.9142 29.9948 11.7707 29.9978 13.4582L29.9993 14.5771V16.5421C30.003 17.6362 29.9915 18.7302 29.9648 19.824L29.9558 20.115C29.9438 20.4525 29.9288 20.784 29.9108 21.183C29.8358 22.7804 29.5809 23.8679 29.2119 24.8249C28.8357 25.8262 28.2455 26.7332 27.4825 27.4828C26.7329 28.2458 25.8258 28.8361 24.8246 29.2123C23.8691 29.5828 22.7802 29.8348 21.1843 29.9098L20.1163 29.9548L19.8254 29.9638C19.0859 29.9848 18.2294 29.9953 16.542 29.9983L15.4231 29.9998H13.4597C12.3651 30.0036 11.2706 29.9921 10.1763 29.9653L9.88535 29.9563C9.52929 29.9428 9.1733 29.9273 8.81741 29.9098C7.22149 29.8348 6.13254 29.5828 5.17559 29.2123C4.17489 28.8359 3.26835 28.2457 2.51923 27.4828C1.75568 26.7334 1.16496 25.8263 0.788314 24.8249C0.417832 23.8694 0.165845 22.7804 0.0908485 21.183L0.0458508 20.115L0.0383514 19.824C0.0107019 18.7303 -0.00179885 17.6362 0.000853152 16.5421V13.4582C-0.00329848 12.3641 0.00770213 11.27 0.0338516 10.1762L0.044351 9.88525C0.0563504 9.54776 0.0713496 9.21626 0.0893487 8.81727C0.164345 7.21981 0.416332 6.13234 0.786813 5.17536C1.16434 4.17368 1.7561 3.26656 2.52073 2.51743C3.26942 1.75477 4.17542 1.16457 5.17559 0.787969C6.13254 0.417478 7.21999 0.165484 8.81741 0.090486C9.21639 0.0724865 9.54937 0.0574869 9.88535 0.0454871L10.1763 0.0364873C11.2701 0.00983711 12.3641 -0.00166371 13.4582 0.00198814L16.542 0.000488281ZM15.0001 7.50031C13.0111 7.50031 11.1035 8.29046 9.69706 9.69695C8.29061 11.1034 7.50047 13.011 7.50047 15.0001C7.50047 16.9892 8.29061 18.8968 9.69706 20.3033C11.1035 21.7098 13.0111 22.4999 15.0001 22.4999C16.9891 22.4999 18.8967 21.7098 20.3031 20.3033C21.7096 18.8968 22.4997 16.9892 22.4997 15.0001C22.4997 13.011 21.7096 11.1034 20.3031 9.69695C18.8967 8.29046 16.9891 7.50031 15.0001 7.50031ZM15.0001 10.5002C15.591 10.5001 16.1762 10.6164 16.7221 10.8425C17.2681 11.0685 17.7642 11.3999 18.1821 11.8177C18.6 12.2355 18.9316 12.7315 19.1578 13.2774C19.384 13.8233 19.5005 14.4084 19.5006 14.9994C19.5007 15.5903 19.3844 16.1755 19.1584 16.7215C18.9323 17.2675 18.601 17.7636 18.1832 18.1815C17.7654 18.5994 17.2694 18.931 16.7235 19.1572C16.1776 19.3834 15.5925 19.4999 15.0016 19.5C13.8082 19.5 12.6636 19.0259 11.8198 18.182C10.9759 17.3381 10.5018 16.1936 10.5018 15.0001C10.5018 13.8067 10.9759 12.6621 11.8198 11.8182C12.6636 10.9743 13.8082 10.5002 15.0016 10.5002M22.8762 5.25036C22.3789 5.25036 21.9021 5.4479 21.5504 5.79952C21.1988 6.15114 21.0013 6.62805 21.0013 7.12532C21.0013 7.62258 21.1988 8.09949 21.5504 8.45111C21.9021 8.80273 22.3789 9.00027 22.8762 9.00027C23.3735 9.00027 23.8503 8.80273 24.202 8.45111C24.5536 8.09949 24.7511 7.62258 24.7511 7.12532C24.7511 6.62805 24.5536 6.15114 24.202 5.79952C23.8503 5.4479 23.3735 5.25036 22.8762 5.25036Z" fill="white"/>
</svg>
