<svg width="23" height="23" viewBox="0 0 23 23" fill="none" xmlns="http://www.w3.org/2000/svg">
<path d="M19.6482 3.3465C17.4869 1.1845 14.609 0 11.5462 0C5.23568 0 0.0924625 5.1175 0.0924625 11.3965C0.0924625 13.409 0.624121 15.364 1.61809 17.089L0 23L6.06784 21.413C7.74372 22.3215 9.62764 22.8045 11.5462 22.8045C17.8568 22.8045 23 17.687 23 11.408C23 8.3605 21.8095 5.497 19.6482 3.3465ZM11.5462 20.8725C9.83568 20.8725 8.1598 20.4125 6.69196 19.55L6.34523 19.343L2.7392 20.286L3.69849 16.79L3.46734 16.4335C2.5196 14.927 2.01105 13.179 2.01105 11.3965C2.01105 6.1755 6.28744 1.9205 11.5347 1.9205C14.0774 1.9205 16.4698 2.9095 18.2613 4.7035C20.0643 6.4975 21.0467 8.878 21.0467 11.408C21.0698 16.629 16.7935 20.8725 11.5462 20.8725ZM16.7703 13.7885C16.4814 13.6505 15.0714 12.9605 14.8171 12.857C14.5513 12.765 14.3663 12.719 14.1698 12.995C13.9734 13.2825 13.4301 13.9265 13.2683 14.1105C13.1065 14.306 12.9332 14.329 12.6442 14.1795C12.3553 14.0415 11.4307 13.731 10.3442 12.765C9.48894 12.006 8.92261 11.0745 8.74924 10.787C8.58744 10.4995 8.72613 10.35 8.87638 10.2005C9.00352 10.074 9.16533 9.867 9.30402 9.706C9.44271 9.545 9.5005 9.4185 9.59296 9.2345C9.68543 9.039 9.63919 8.878 9.56985 8.74C9.5005 8.602 8.92261 7.199 8.69146 6.624C8.4603 6.072 8.21759 6.141 8.04422 6.1295C7.87085 6.1295 7.68593 6.1295 7.48945 6.1295C7.29296 6.1295 6.99246 6.1985 6.72663 6.486C6.47236 6.7735 5.73266 7.4635 5.73266 8.8665C5.73266 10.2695 6.76131 11.6265 6.9 11.8105C7.03869 12.006 8.92261 14.881 11.7889 16.1115C12.4709 16.4105 13.0025 16.583 13.4186 16.7095C14.1005 16.928 14.7246 16.8935 15.2216 16.8245C15.7764 16.744 16.9206 16.1345 17.1518 15.4675C17.3945 14.8005 17.3945 14.237 17.3136 14.1105C17.2327 13.984 17.0593 13.9265 16.7703 13.7885Z" fill="#E3E3E3"/>
</svg>
