<svg width="19" height="24" viewBox="0 0 19 24" fill="none" xmlns="http://www.w3.org/2000/svg">
<path d="M9.5 0C4.275 0 0 4.32 0 9.6C0 16.08 8.3125 23.4 8.66875 23.76C8.90625 23.88 9.2625 24 9.5 24C9.7375 24 10.0937 23.88 10.3312 23.76C10.6875 23.4 19 16.08 19 9.6C19 4.32 14.725 0 9.5 0ZM9.5 21.24C7.00625 18.84 2.375 13.68 2.375 9.6C2.375 5.64 5.58125 2.4 9.5 2.4C13.4187 2.4 16.625 5.64 16.625 9.6C16.625 13.56 11.9937 18.84 9.5 21.24ZM9.5 4.8C6.8875 4.8 4.75 6.96 4.75 9.6C4.75 12.24 6.8875 14.4 9.5 14.4C12.1125 14.4 14.25 12.24 14.25 9.6C14.25 6.96 12.1125 4.8 9.5 4.8ZM9.5 12C8.19375 12 7.125 10.92 7.125 9.6C7.125 8.28 8.19375 7.2 9.5 7.2C10.8063 7.2 11.875 8.28 11.875 9.6C11.875 10.92 10.8063 12 9.5 12Z" fill="#E3E3E3"/>
</svg>
